<?xml version="1.0" encoding="UTF-8"?>
<!DOCTYPE svg PUBLIC "-//W3C//DTD SVG 1.1//EN" "http://www.w3.org/Graphics/SVG/1.1/DTD/svg11.dtd">
<svg xmlns="http://www.w3.org/2000/svg" version="1.1" width="512px" height="512px" style="shape-rendering:geometricPrecision; text-rendering:geometricPrecision; image-rendering:optimizeQuality; fill-rule:evenodd; clip-rule:evenodd" xmlns:xlink="http://www.w3.org/1999/xlink">
<g><path style="opacity:0.98" fill="#262b40" d="M 236.5,8.5 C 286.251,4.17862 330.584,17.3453 369.5,48C 403.957,79.0844 422.79,117.918 426,164.5C 427.489,203.722 420.489,241.389 405,277.5C 383.001,329.088 355.668,377.421 323,422.5C 305.052,447.449 286.719,472.115 268,496.5C 263.116,502.22 256.95,504.053 249.5,502C 247.04,500.542 244.873,498.709 243,496.5C 204.776,446.405 169.776,394.072 138,339.5C 116.383,301.648 100.05,261.648 89,219.5C 75.4085,150.272 94.9085,92.4388 147.5,46C 173.682,25.2427 203.349,12.7427 236.5,8.5 Z"/></g>
<g><path style="opacity:1" fill="#fdfdfd" d="M 238.5,18.5 C 284.773,15.2272 326.106,27.7272 362.5,56C 398.315,88.812 416.315,129.645 416.5,178.5C 414.448,215.044 405.948,250.044 391,283.5C 369.737,330.048 344.404,374.048 315,415.5C 297.052,440.449 278.719,465.115 260,489.5C 257,493.5 254,493.5 251,489.5C 210.739,437.211 174.406,382.211 142,324.5C 121.81,288.591 107.143,250.591 98,210.5C 87.6715,145.02 108.171,91.5195 159.5,50C 183.356,33.1073 209.69,22.6073 238.5,18.5 Z"/></g>
<g><path style="opacity:1" fill="#252a3f" d="M 245.5,41.5 C 315.572,41.4462 362.739,74.1128 387,139.5C 400.75,196.245 386.25,244.412 343.5,284C 295.333,320.411 243.999,325.411 189.5,299C 139.255,268.017 115.755,222.85 119,163.5C 128.178,106.662 159.678,68.1623 213.5,48C 224.11,44.8522 234.776,42.6855 245.5,41.5 Z"/></g>
<g><path style="opacity:1" fill="#fdfdfd" d="M 207.5,110.5 C 216.185,108.657 222.352,111.657 226,119.5C 226.5,134.496 226.667,149.496 226.5,164.5C 245.833,164.5 265.167,164.5 284.5,164.5C 284.333,149.496 284.5,134.496 285,119.5C 288.243,111.462 294.077,108.629 302.5,111C 307.099,112.598 309.932,115.765 311,120.5C 311.667,158.833 311.667,197.167 311,235.5C 308.747,244.713 302.914,248.547 293.5,247C 290.193,245.272 287.693,242.772 286,239.5C 284.555,221.889 284.055,204.223 284.5,186.5C 265.167,186.5 245.833,186.5 226.5,186.5C 226.945,204.223 226.445,221.889 225,239.5C 220.658,246.923 214.492,249.09 206.5,246C 204.291,244.127 202.458,241.96 201,239.5C 199.357,199.88 199.024,160.213 200,120.5C 201.213,116.131 203.713,112.797 207.5,110.5 Z"/></g>
</svg>
