<?xml version="1.0" encoding="UTF-8"?>
<!DOCTYPE svg PUBLIC "-//W3C//DTD SVG 1.1//EN" "http://www.w3.org/Graphics/SVG/1.1/DTD/svg11.dtd">
<svg xmlns="http://www.w3.org/2000/svg" version="1.1" width="512px" height="512px" style="shape-rendering:geometricPrecision; text-rendering:geometricPrecision; image-rendering:optimizeQuality; fill-rule:evenodd; clip-rule:evenodd" xmlns:xlink="http://www.w3.org/1999/xlink">
<g><path style="opacity:1" fill="#cecccc" d="M 126.5,-0.5 C 134.167,-0.5 141.833,-0.5 149.5,-0.5C 154.537,2.04369 158.037,6.04369 160,11.5C 168.757,51.9531 177.257,92.4531 185.5,133C 185.344,136.817 184.178,140.317 182,143.5C 169.632,156.035 157.132,168.369 144.5,180.5C 147.386,174.897 148.22,168.897 147,162.5C 138.868,124.838 130.868,87.1715 123,49.5C 119.702,39.7599 112.869,35.4266 102.5,36.5C 74.1009,37.634 48.1009,45.9674 24.5,61.5C 49.715,26.5516 83.715,5.88498 126.5,-0.5 Z"/></g>
<g><path style="opacity:0.998" fill="#e1dfdf" d="M 144.5,180.5 C 142.833,182.833 140.833,184.833 138.5,186.5C 129.868,194.631 121.368,202.964 113,211.5C 107.421,219.859 106.088,228.859 109,238.5C 147.885,309.719 203.052,364.552 274.5,403C 283.433,404.35 291.766,402.684 299.5,398C 308.036,389.632 316.369,381.132 324.5,372.5C 326.5,369.833 328.833,367.5 331.5,365.5C 334.475,364.089 337.642,363.423 341,363.5C 380.989,370.912 420.823,379.078 460.5,388C 470.679,390.84 475.345,397.507 474.5,408C 473.063,436.473 464.73,462.64 449.5,486.5C 429.691,499.768 408.025,508.101 384.5,511.5C 373.167,511.5 361.833,511.5 350.5,511.5C 326.247,506.804 302.913,498.971 280.5,488C 147.046,424.578 55.2131,323.412 5,184.5C 2.82553,176.442 0.992197,168.442 -0.5,160.5C -0.5,149.5 -0.5,138.5 -0.5,127.5C 2.69141,103.598 11.0247,81.5977 24.5,61.5C 48.1009,45.9674 74.1009,37.634 102.5,36.5C 112.869,35.4266 119.702,39.7599 123,49.5C 130.868,87.1715 138.868,124.838 147,162.5C 148.22,168.897 147.386,174.897 144.5,180.5 Z"/></g>
<g><path style="opacity:1" fill="#cecccc" d="M 138.5,186.5 C 180.167,268.833 242.167,330.833 324.5,372.5C 316.369,381.132 308.036,389.632 299.5,398C 291.766,402.684 283.433,404.35 274.5,403C 203.052,364.552 147.885,309.719 109,238.5C 106.088,228.859 107.421,219.859 113,211.5C 121.368,202.964 129.868,194.631 138.5,186.5 Z"/></g>
<g><path style="opacity:1" fill="#cecccc" d="M 511.5,361.5 C 511.5,369.167 511.5,376.833 511.5,384.5C 505.115,427.285 484.448,461.285 449.5,486.5C 464.73,462.64 473.063,436.473 474.5,408C 475.345,397.507 470.679,390.84 460.5,388C 420.823,379.078 380.989,370.912 341,363.5C 337.642,363.423 334.475,364.089 331.5,365.5C 343.298,353.202 355.298,341.035 367.5,329C 370.683,326.822 374.183,325.656 378,325.5C 420.382,333.776 462.549,342.943 504.5,353C 507.481,355.464 509.814,358.297 511.5,361.5 Z"/></g>
</svg>
